#Comment line ignore any data following # character 
#Hierarchical Translation and Rotation (.htr) file 
[Header]	
#Header keywords are followed by a single value 
FileType HTR		#Single word string
DataType HTRS		#Translation followed by rotation and scale data
FileVersion 1		#integer
NumSegments 25		#integer
NumFrames 5		#integer
DataFrameRate 30		#integer, data frame rate in this file
EulerRotationOrder ZYX
CalibrationUnits mm
RotationUnits Degrees
GlobalAxisofGravity Y
BoneLengthAxis Y
ScaleFactor 1.00
[SegmentNames&Hierarchy]
#CHILD	PARENT
BN_Tick_Root GLOBAL
BN_Torso BN_Tick_Root
BN_L_Leg_Front01 BN_Torso
BN_L_Leg_Rear01 BN_Torso
BN_MetalTop BN_Torso
BN_Neck BN_Torso
BN_R_Leg_Front01 BN_Torso
BN_R_Leg_Rear01 BN_Torso
BN_Sack BN_Torso
BN_L_Leg_Front02 BN_L_Leg_Front01
BN_L_Leg_Front03 BN_L_Leg_Front02
BN_L_Leg_Rear02 BN_L_Leg_Rear01
BN_L_Leg_Rear03 BN_L_Leg_Rear02
BN_Head BN_Neck
BN_Needle BN_Head
BN_R_Leg_Front02 BN_R_Leg_Front01
BN_R_Leg_Front03 BN_R_Leg_Front02
BN_R_Leg_Rear02 BN_R_Leg_Rear01
BN_R_Leg_Rear03 BN_R_Leg_Rear02
BN_SackDef01 BN_Sack
BN_SackDef02 BN_Sack
BN_SackDef03 BN_Sack
BN_SackDef04 BN_Sack
BN_SackDef05 BN_Sack
BN_SackDef06 BN_Sack
[BasePosition]
#SegmentName Tx, Ty, Tz, Rx, Ry, Rz, BoneLength
BN_Tick_Root 0.000000 0.000000 0.000000 -90.000000 0.000000 0.000000 10.000000 
BN_Torso 0.000000 0.000000 0.000000 0.000000 0.000000 0.000000 10.000000 
BN_L_Leg_Front01 0.000000 0.000000 0.000000 0.000000 0.000000 0.000000 10.000000 
BN_L_Leg_Rear01 0.000000 0.000000 0.000000 0.000000 0.000000 0.000000 10.000000 
BN_MetalTop 0.000000 0.000000 0.000000 0.000000 0.000000 0.000000 10.000000 
BN_Neck 0.000000 0.000000 0.000000 0.000000 0.000000 0.000000 10.000000 
BN_R_Leg_Front01 0.000000 0.000000 0.000000 0.000000 0.000000 0.000000 10.000000 
BN_R_Leg_Rear01 0.000000 0.000000 0.000000 0.000000 0.000000 0.000000 10.000000 
BN_Sack 0.000000 0.000000 0.000000 0.000000 0.000000 0.000000 10.000000 
BN_L_Leg_Front02 0.000000 0.000000 0.000000 0.000000 0.000000 0.000000 10.000000 
BN_L_Leg_Front03 0.000000 0.000000 0.000000 0.000000 0.000000 0.000000 10.000000 
BN_L_Leg_Rear02 0.000000 0.000000 0.000000 0.000000 0.000000 0.000000 10.000000 
BN_L_Leg_Rear03 0.000000 0.000000 0.000000 0.000000 0.000000 0.000000 10.000000 
BN_Head 0.000000 0.000000 0.000000 0.000000 0.000000 0.000000 10.000000 
BN_Needle 0.000000 0.000000 0.000000 0.000000 0.000000 0.000000 10.000000 
BN_R_Leg_Front02 0.000000 0.000000 0.000000 0.000000 0.000000 0.000000 10.000000 
BN_R_Leg_Front03 0.000000 0.000000 0.000000 0.000000 0.000000 0.000000 10.000000 
BN_R_Leg_Rear02 0.000000 0.000000 0.000000 0.000000 0.000000 0.000000 10.000000 
BN_R_Leg_Rear03 0.000000 0.000000 0.000000 0.000000 0.000000 0.000000 10.000000 
BN_SackDef01 0.000000 0.000000 0.000000 0.000000 0.000000 0.000000 10.000000 
BN_SackDef02 0.000000 0.000000 0.000000 0.000000 0.000000 0.000000 10.000000 
BN_SackDef03 0.000000 0.000000 0.000000 0.000000 0.000000 0.000000 10.000000 
BN_SackDef04 0.000000 0.000000 0.000000 0.000000 0.000000 0.000000 10.000000 
BN_SackDef05 0.000000 0.000000 0.000000 0.000000 0.000000 0.000000 10.000000 
BN_SackDef06 0.000000 0.000000 0.000000 0.000000 0.000000 0.000000 10.000000 
#Beginning of Data. Separated by tabs
#Fr	Tx	Ty	Tz	Rx	Ry	Rz	SF
[BN_Tick_Root]
83 0.000000 -0.000180 0.000000 0.000000 0.000000 -0.000020 0.000180
84 0.000000 -0.000182 0.000000 0.000000 0.000000 -0.000020 0.000182
85 0.000000 -0.000184 0.000000 0.000000 0.000000 -0.000020 0.000184
86 0.000000 -0.000187 0.000000 0.000000 0.000000 -0.000020 0.000187
87 0.000000 -0.000189 0.000000 0.000000 0.000000 -0.000020 0.000189
[BN_Torso]
83 71.076912 83.467087 290.532349 28.845432 -0.934277 -2.914631 310.528137
84 68.823990 85.231346 290.529907 31.133484 -0.664134 -12.131336 310.497589
85 70.077324 82.955872 292.549133 32.916843 -0.528903 -4.508228 312.053680
86 72.404991 78.260811 296.299164 34.491711 -0.457650 9.643251 314.897491
87 73.658356 74.343422 298.318451 35.165112 -0.432982 17.269833 316.143005
[BN_L_Leg_Front01]
83 -68.477791 10.734189 -26.804373 39.020439 58.517693 -123.043633 74.316254
84 -68.477791 10.734189 -26.804373 32.172092 53.274658 -116.010735 74.316254
85 -68.477791 10.734189 -26.804373 42.521030 54.478355 -117.670654 74.316254
86 -68.477791 10.734189 -26.804373 59.906879 59.283585 -121.001900 74.316254
87 -68.477791 10.734189 -26.804373 69.246384 62.604443 -121.950081 74.316254
[BN_L_Leg_Rear01]
83 -72.133743 -73.994843 -18.268616 85.337830 35.843285 -117.425995 104.939293
84 -72.133743 -73.994843 -18.268616 79.069191 30.170422 -109.167412 104.939293
85 -72.133743 -73.994843 -18.268616 86.148178 31.211580 -114.382492 104.939293
86 -72.133743 -73.994843 -18.268616 99.372253 36.194153 -123.834488 104.939293
87 -72.133743 -73.994843 -18.268616 106.745323 39.678299 -128.590012 104.939293
[BN_MetalTop]
83 0.000008 13.737477 26.403606 82.063416 -49.159885 -85.755898 29.763546
84 0.000008 13.737477 26.403606 79.050407 -47.290253 -86.555573 29.763546
85 0.000008 13.737477 26.403606 77.385231 -46.023106 -89.299294 29.763546
86 0.000008 13.737477 26.403606 83.156242 -47.132484 -96.949989 29.763546
87 0.000008 13.737477 26.403606 87.835693 -48.123756 -102.832268 29.763546
[BN_Neck]
83 0.000014 95.233284 10.002091 -89.999672 -65.297531 89.999657 95.757088
84 0.000014 95.233284 10.002091 -89.999672 -65.297531 89.999657 95.757088
85 0.000014 95.233284 10.002091 -89.999672 -65.297531 89.999657 95.757088
86 0.000014 95.233284 10.002091 -89.999672 -65.297531 89.999657 95.757088
87 0.000014 95.233284 10.002091 -89.999672 -65.297531 89.999657 95.757088
[BN_R_Leg_Front01]
83 68.477768 10.734107 -26.804314 -51.878937 63.614838 -55.971176 74.316193
84 68.477768 10.734107 -26.804314 -62.877323 65.363396 -55.767467 74.316193
85 68.477768 10.734107 -26.804314 -57.612324 60.441177 -59.366405 74.316193
86 68.477768 10.734107 -26.804314 -44.591507 53.542336 -64.342911 74.316193
87 68.477768 10.734107 -26.804314 -37.011318 50.444752 -66.624405 74.316193
[BN_R_Leg_Rear01]
83 72.133751 -73.994873 -18.268644 -81.943771 35.059830 -70.126045 104.939331
84 72.133751 -73.994873 -18.268644 -89.909172 35.380367 -63.353394 104.939331
85 72.133751 -73.994873 -18.268644 -84.402000 30.952700 -69.315216 104.939331
86 72.133751 -73.994873 -18.268644 -73.438873 25.603607 -79.636475 104.939331
87 72.133751 -73.994873 -18.268644 -67.694252 23.618872 -84.959595 104.939331
[BN_Sack]
83 -0.000000 -78.024918 33.657791 91.293831 -9.416859 -84.556465 84.974907
84 -0.000000 -78.024918 33.657791 90.229599 -10.916417 -80.446541 84.974907
85 -0.000000 -78.024918 33.657791 91.545364 -11.977774 -88.130234 84.974907
86 -0.000000 -78.024918 33.657791 93.894180 -12.237770 -99.685768 84.974907
87 -0.000000 -78.024918 33.657791 94.122925 -10.276872 -103.316017 84.974907
[BN_L_Leg_Front02]
83 142.805023 -0.000015 -0.000104 0.142482 0.434970 -106.335190 142.805023
84 142.805023 -0.000015 -0.000104 0.142445 0.439911 -107.117943 142.805023
85 142.805023 -0.000015 -0.000104 0.149089 0.419512 -105.075722 142.805023
86 142.805023 -0.000015 -0.000104 0.161700 0.377865 -100.576981 142.805023
87 142.805023 -0.000015 -0.000104 0.170410 0.341729 -97.481750 142.805023
[BN_L_Leg_Front03]
83 124.143021 -0.000045 0.000007 0.352441 -0.405113 115.261017 124.143021
84 124.143021 -0.000045 0.000007 0.353866 -0.404889 116.043983 124.143021
85 124.143021 -0.000045 0.000007 0.351370 -0.410664 113.974052 124.143021
86 124.143021 -0.000045 0.000007 0.352460 -0.425052 109.231857 124.143021
87 124.143021 -0.000045 0.000007 0.352146 -0.430256 105.822502 124.143021
[BN_L_Leg_Rear02]
83 139.939041 0.000075 -0.000022 0.091626 -0.241263 94.131783 139.939041
84 139.939041 0.000075 -0.000022 0.088101 -0.218975 92.718636 139.939041
85 139.939041 0.000075 -0.000022 0.086043 -0.219792 93.793602 139.939041
86 139.939041 0.000075 -0.000022 0.090958 -0.241516 94.448853 139.939041
87 139.939041 0.000075 -0.000022 0.091456 -0.241328 94.212807 139.939041
[BN_L_Leg_Rear03]
83 142.839615 0.000179 -0.000060 0.000462 -0.002301 -112.683685 142.839615
84 142.839615 0.000179 -0.000060 0.000429 -0.002308 -111.047821 142.839615
85 142.839615 0.000179 -0.000060 0.000454 -0.002303 -112.297020 142.839615
86 142.839615 0.000179 -0.000060 0.000469 -0.002300 -113.051659 142.839615
87 142.839615 0.000179 -0.000060 0.000464 -0.002301 -112.784676 142.839615
[BN_Head]
83 57.062447 -0.000030 0.000000 14.136267 9.406885 66.981064 57.062447
84 57.062447 -0.000030 0.000000 18.486547 1.119751 69.752983 57.062447
85 57.062447 -0.000030 0.000000 14.136802 7.320867 71.306076 57.062447
86 57.062447 -0.000030 0.000000 6.328321 19.288942 71.394493 57.062447
87 57.062447 -0.000030 0.000000 1.874258 25.957176 70.405441 57.062447
[BN_Needle]
83 43.342999 326.398193 -0.000116 0.000003 0.000030 87.896805 329.263428
84 43.342999 326.398193 -0.000117 0.000003 0.000030 87.896805 329.263428
85 43.342999 326.398193 -0.000117 0.000003 0.000030 87.896805 329.263428
86 43.343002 326.398193 -0.000117 0.000003 0.000030 87.896805 329.263428
87 43.343002 326.398193 -0.000117 0.000003 0.000030 87.896805 329.263428
[BN_R_Leg_Front02]
83 142.804947 -0.000060 0.000060 -0.152319 0.412804 103.706932 142.804947
84 142.804947 -0.000060 0.000060 -0.160181 0.396471 101.922546 142.804947
85 142.804947 -0.000060 0.000060 -0.159234 0.396852 102.196068 142.804947
86 142.804947 -0.000060 0.000060 -0.161123 0.389426 101.858856 142.804947
87 142.804947 -0.000060 0.000060 -0.164652 0.381263 101.015495 142.804947
[BN_R_Leg_Front03]
83 124.143005 -0.000060 -0.000156 -0.352272 -0.415007 -112.562691 124.143005
84 124.143005 -0.000060 -0.000156 -0.353722 -0.418853 -110.679253 124.143005
85 124.143005 -0.000060 -0.000156 -0.352667 -0.419742 -110.967598 124.143005
86 124.143005 -0.000060 -0.000156 -0.353964 -0.418649 -110.613113 124.143005
87 124.143005 -0.000060 -0.000156 -0.356062 -0.422731 -109.708328 124.143005
[BN_R_Leg_Rear02]
83 139.939011 -0.000149 0.000015 -0.086909 -0.225705 -93.838760 139.939011
84 139.939011 -0.000149 0.000015 -0.088283 -0.236973 -94.695717 139.939011
85 139.939011 -0.000149 0.000015 -0.093345 -0.239951 -93.879379 139.939011
86 139.939011 -0.000149 0.000015 -0.099359 -0.230557 -91.023163 139.939011
87 139.939011 -0.000149 0.000015 -0.099356 -0.220828 -89.254128 139.939011
[BN_R_Leg_Rear03]
83 142.839417 0.000075 0.000119 0.002303 -0.000455 112.346603 142.839417
84 142.839417 0.000075 0.000119 0.002299 -0.000475 113.337982 142.839417
85 142.839417 0.000075 0.000119 0.002303 -0.000456 112.400208 142.839417
86 142.839417 0.000075 0.000119 0.002315 -0.000388 109.027702 142.839417
87 142.839417 0.000075 0.000119 0.002322 -0.000345 106.893623 142.839417
[BN_SackDef01]
83 624.081726 -16.647129 107.925606 -128.408218 -44.374973 -11.740845 633.563782
84 616.845154 -16.398012 106.669380 -128.408218 -44.374973 -11.740845 626.214966
85 608.208008 -16.100658 105.170090 -128.408218 -44.374973 -11.740845 617.443848
86 600.971313 -15.851559 103.913773 -128.408218 -44.374973 -11.740845 610.094971
87 597.936707 -15.747072 103.387062 -128.408218 -44.374973 -11.740845 607.013306
[BN_SackDef02]
83 240.152359 -222.351456 123.671692 32.077126 -27.375721 -88.781525 349.868561
84 238.066223 -219.054016 122.066429 32.077126 -27.375721 -88.781525 345.775055
85 235.980087 -215.756561 120.461182 32.077126 -27.375721 -88.781525 341.684631
86 233.893951 -212.459106 118.855919 32.077126 -27.375721 -88.781525 337.597351
87 233.072174 -211.160049 118.223602 32.077126 -27.375721 -88.781525 335.988129
[BN_SackDef03]
83 624.081543 -16.647110 -107.925842 18.144459 44.375008 -11.740894 633.563660
84 616.845032 -16.398012 -106.669609 18.144459 44.375008 -11.740894 626.214844
85 608.207825 -16.100601 -105.170250 18.144459 44.375008 -11.740894 617.443726
86 600.971191 -15.851559 -103.914093 18.144459 44.375008 -11.740894 610.094849
87 597.936584 -15.747033 -103.387184 18.144459 44.375008 -11.740894 607.013184
[BN_SackDef04]
83 240.152283 -222.351425 -123.671555 146.059982 27.375723 -88.781555 349.868469
84 238.066162 -219.053970 -122.066315 146.059982 27.375723 -88.781555 345.774963
85 235.980042 -215.756500 -120.461067 146.059982 27.375723 -88.781555 341.684540
86 233.893906 -212.459030 -118.855820 146.059982 27.375723 -88.781555 337.597260
87 233.072052 -211.160004 -118.223381 146.059982 27.375723 -88.781555 335.987946
[BN_SackDef05]
83 302.148621 279.838898 -171.630203 0.155741 51.314110 90.605110 446.161987
84 298.374908 275.029724 -169.411606 0.155741 51.314110 90.605110 439.737701
85 294.601257 270.220551 -167.193008 0.155741 51.314110 90.605110 433.315765
86 290.827545 265.411346 -164.974396 0.155741 51.314110 90.605110 426.896240
87 289.341034 263.516846 -164.100418 0.155741 51.314110 90.605110 424.368103
[BN_SackDef06]
83 302.148712 279.839111 171.629837 152.058487 -51.314072 90.605019 446.162048
84 298.375000 275.029938 169.411224 152.058487 -51.314072 90.605019 439.737701
85 294.601318 270.220734 167.192627 152.058487 -51.314072 90.605019 433.315765
86 290.827606 265.411499 164.973984 152.058487 -51.314072 90.605019 426.896210
87 289.341003 263.516998 164.100037 152.058487 -51.314072 90.605019 424.368073
